<?xml version="1.0" encoding="UTF-8"?>
<svg width="32" height="32" xmlns="http://www.w3.org/2000/svg" xmlns:xlink="http://www.w3.org/1999/xlink">
 <defs>
  <linearGradient id="linearGradient13658">
   <stop stop-color="white" id="stop13660" offset="0"/>
   <stop stop-color="#ebebeb" id="stop13662" offset="1"/>
  </linearGradient>
  <linearGradient y2="0.855031" x2="0.893063" y1="0.110924" x1="0.095509" id="linearGradient13664" xlink:href="#linearGradient13658"/>
 </defs>
 <metadata id="metadata7">image/svg+xml</metadata>
 <g>
  <title>Layer 1</title>
  <path fill="url(#linearGradient13664)" stroke="#8a0000" stroke-width="0.600011" stroke-linejoin="round" stroke-miterlimit="4" d="m6.994497,0.418597c-0.384221,0.040672 -0.746599,0.186268 -1.023,0.465l-4.96,4.991c-0.737076,0.743296 -0.606211,2.083329 0.279,2.976l6.975,7.006001l0,0.185998l-7.099,7.037001c-0.892681,0.885221 -1.022286,2.207935 -0.279,2.945l5.022,4.929001c0.743296,0.737076 2.052319,0.63722 2.945,-0.248001l7.099,-7.067999l7.130001,7.191999c0.885212,0.892683 2.207924,1.022297 2.945,0.278999l4.959999,-5.021999c0.737078,-0.743284 0.606222,-2.052317 -0.278999,-2.945l-7.037001,-7.099001l0,-0.061999l7.160999,-7.098999c0.892681,-0.885211 1.022297,-2.176924 0.279001,-2.914l-4.991001,-4.96c-0.743284,-0.737066 -2.083319,-0.606211 -2.976,0.279l-7.067999,7.037l-0.062,0l-7.099,-7.161c-0.553258,-0.557921 -1.281624,-0.811773 -1.922,-0.744z" id="rect11855"/>
  <path fill="#7f3f00" stroke-width="0.6" stroke-linejoin="round" stroke-miterlimit="4" d="m7.189356,3.76124c-0.177925,-0.019334 -0.34347,0.03347 -0.465,0.155l-2.759,2.759c-0.24306,0.24305 -0.178292,0.689708 0.124,0.992l8.214999,8.21499l-8.214999,8.215009c-0.302292,0.302282 -0.36706,0.748941 -0.124,0.992001l2.759,2.759001c0.24306,0.24305 0.689708,0.209282 0.992,-0.093l8.215,-8.215l8.215,8.215c0.30229,0.302282 0.74894,0.33605 0.991999,0.093l2.759001,-2.759001c0.243059,-0.243059 0.178291,-0.689718 -0.124001,-0.992001l-8.215,-8.215009l8.215,-8.21499c0.302292,-0.302292 0.36706,-0.74895 0.124001,-0.992l-2.759001,-2.759c-0.243059,-0.24306 -0.689709,-0.178292 -0.991999,0.124l-8.215,8.21499l-8.215,-8.21499c-0.151141,-0.151151 -0.349075,-0.259676 -0.527,-0.279z" id="rect11874"/>
 </g>
</svg>