<?xml version="1.0" encoding="UTF-8" standalone="no"?>
<!-- Created with Inkscape (http://www.inkscape.org/) -->

<svg
   xmlns:dc="http://purl.org/dc/elements/1.1/"
   xmlns:cc="http://creativecommons.org/ns#"
   xmlns:rdf="http://www.w3.org/1999/02/22-rdf-syntax-ns#"
   xmlns:svg="http://www.w3.org/2000/svg"
   xmlns="http://www.w3.org/2000/svg"
   xmlns:xlink="http://www.w3.org/1999/xlink"
   xmlns:sodipodi="http://sodipodi.sourceforge.net/DTD/sodipodi-0.dtd"
   xmlns:inkscape="http://www.inkscape.org/namespaces/inkscape"
   height="60.0000000"
   id="svg1"
   inkscape:version="0.48.3.1 r9886"
   sodipodi:docname="disconnect.svg"
   sodipodi:version="0.32"
   version="1.0"
   width="60.0000000"
   x="0"
   y="0">
  <metadata
     id="metadata3">
    <rdf:RDF>
      <cc:Work
         rdf:about="">
        <dc:title></dc:title>
        <dc:description />
        <dc:subject>
          <rdf:Bag>
            <rdf:li>hash</rdf:li>
            <rdf:li />
            <rdf:li>action</rdf:li>
            <rdf:li>computer</rdf:li>
            <rdf:li>icons</rdf:li>
            <rdf:li>theme</rdf:li>
          </rdf:Bag>
        </dc:subject>
        <dc:publisher>
          <cc:Agent
             rdf:about="http://www.openclipart.org">
            <dc:title>Danny Allen</dc:title>
          </cc:Agent>
        </dc:publisher>
        <dc:creator>
          <cc:Agent>
            <dc:title>Danny Allen</dc:title>
          </cc:Agent>
        </dc:creator>
        <dc:rights>
          <cc:Agent>
            <dc:title>Danny Allen</dc:title>
          </cc:Agent>
        </dc:rights>
        <dc:date />
        <dc:format>image/svg+xml</dc:format>
        <dc:type
           rdf:resource="http://purl.org/dc/dcmitype/StillImage" />
        <cc:license
           rdf:resource="http://web.resource.org/cc/PublicDomain" />
        <dc:language>en</dc:language>
      </cc:Work>
      <cc:License
         rdf:about="http://web.resource.org/cc/PublicDomain">
        <cc:permits
           rdf:resource="http://web.resource.org/cc/Reproduction" />
        <cc:permits
           rdf:resource="http://web.resource.org/cc/Distribution" />
        <cc:permits
           rdf:resource="http://web.resource.org/cc/DerivativeWorks" />
      </cc:License>
    </rdf:RDF>
  </metadata>
  <sodipodi:namedview
     bordercolor="#666666"
     borderopacity="1.0"
     id="base"
     inkscape:cx="33.667126"
     inkscape:cy="16.62639"
     inkscape:pageopacity="0.0"
     inkscape:pageshadow="2"
     inkscape:window-height="685"
     inkscape:window-width="1016"
     inkscape:window-x="0"
     inkscape:window-y="0"
     inkscape:zoom="4.9119411"
     pagecolor="#ffffff"
     showgrid="false"
     inkscape:window-maximized="0"
     inkscape:current-layer="svg1" />
  <defs
     id="defs3">
    <linearGradient
       xlink:href="#linearGradient13658"
       id="linearGradient13664"
       x1="3.1400068"
       y1="3.6339446"
       x2="28.492792"
       y2="27.287748"
       gradientTransform="scale(1.0001226,0.99987738)"
       gradientUnits="userSpaceOnUse" />
    <linearGradient
       id="linearGradient13658">
      <stop
         offset="0"
         id="stop13660"
         stop-color="white" />
      <stop
         offset="1"
         id="stop13662"
         stop-color="#ebebeb" />
    </linearGradient>
  </defs>
  <path
     d="M 4.1454612,56.062859 C 11.874235,54.247455 20.247211,43.367641 25.306652,36.985720"
     id="path818"
     sodipodi:nodetypes="cc"
     sodipodi:stroke-cmyk="(0 0 0 0.8)"
     style="fill:none;fill-opacity:0.75000000;fill-rule:evenodd;stroke:#333333;stroke-width:3.9219476;stroke-linecap:round;stroke-linejoin:round;stroke-dasharray:3.9219476,3.9219476;stroke-dashoffset:0.0000000;"
     transform="matrix(0.796798,0.000000,0.000000,0.796798,0.462804,11.00819)" />
  <path
     d="M 35.036480,17.093221 L 25.633406,28.263617 M 41.585421,22.866403 L 32.322691,33.870076"
     id="path822"
     sodipodi:stroke-cmyk="(0 0 0 0.8)"
     style="fill:none;fill-opacity:0.75000000;fill-rule:evenodd;stroke:#333333;stroke-width:3.1375581;stroke-linecap:round;stroke-dasharray:none;"
     transform="matrix(0.796798,0.000000,0.000000,0.796798,0.462804,11.00819)" />
  <path
     d="M 25.878336,24.522351 C 24.466902,23.339393 22.765688,23.060727 22.056566,23.903130 L 15.679954,31.478235 L 15.266336,31.969593 C 15.201098,32.047094 15.261209,32.187714 15.217210,32.277596 C 12.426163,36.343393 13.011448,41.881856 16.875201,45.120166 C 20.738952,48.358476 26.348261,48.011859 29.879821,44.566704 C 29.960949,44.507942 30.110140,44.542743 30.175378,44.465241 L 30.588996,43.973884 L 36.965607,36.398778 C 37.674730,35.556375 37.105914,33.932472 35.694481,32.749513 L 25.878336,24.522351 z "
     id="path821"
     sodipodi:stroke-cmyk="(0 0 0 0.8)"
     style="font-size:12.000000;fill:#b3b3b3;fill-rule:evenodd;stroke:#333333;stroke-width:3.9219476;stroke-linecap:round;stroke-linejoin:round;fill-opacity:1.0000000;stroke-dasharray:none;"
     transform="matrix(0.796798,0.000000,0.000000,0.796798,0.462804,11.00819)" />
  <path
     d="M 5.8911263,17.354443 C -1.8376477,19.169847 -10.210624,30.049661 -15.270065,36.431582"
     id="path883"
     sodipodi:nodetypes="cc"
     sodipodi:stroke-cmyk="(0 0 0 0.8)"
     style="fill:none;fill-opacity:0.75000000;fill-rule:evenodd;stroke:#333333;stroke-width:3.9219476;stroke-linecap:round;stroke-linejoin:round;stroke-dasharray:3.9219476,3.9219476;stroke-dashoffset:0.0000000;"
     transform="matrix(0.796798,0.000000,0.000000,0.796798,52.16933,-8.660563)" />
  <path
     d="M -24.999892,56.324081 L -15.596818,45.153685 M -31.548833,50.550899 L -22.286103,39.547226"
     id="path884"
     sodipodi:stroke-cmyk="(0 0 0 0.8)"
     style="fill:none;fill-opacity:0.75000000;fill-rule:evenodd;stroke:#333333;stroke-width:3.1375581;stroke-linecap:round;stroke-dasharray:none;"
     transform="matrix(0.796798,0.000000,0.000000,0.796798,52.16933,-8.660563)" />
  <path
     d="M -15.841748,48.894951 C -14.430315,50.077909 -12.729101,50.356575 -12.019979,49.514172 L -5.6433667,41.939067 L -5.2297487,41.447709 C -5.1645107,41.370208 -5.2246217,41.229588 -5.1806227,41.139706 C -2.3895757,37.073909 -2.9748607,31.535446 -6.8386137,28.297136 C -10.702365,25.058826 -16.311673,25.405443 -19.843233,28.850598 C -19.924361,28.909360 -20.073552,28.874559 -20.138790,28.952061 L -20.552408,29.443418 L -26.929019,37.018524 C -27.638142,37.860927 -27.069326,39.484830 -25.657893,40.667789 L -15.841748,48.894951 z "
     id="path885"
     sodipodi:stroke-cmyk="(0 0 0 0.8)"
     style="font-size:12.000000;fill:#7f7f7f;fill-rule:evenodd;stroke:#333333;stroke-width:3.9219476;stroke-linecap:round;stroke-linejoin:round;stroke-dasharray:none;"
     transform="matrix(0.796798,0.000000,0.000000,0.796798,52.16933,-8.660563)" />
  <g
     id="g3016"
     transform="translate(22.07049,23.437866)">
    <title
       id="title3018">Layer 1</title>
    <path
       id="rect11855"
       d="m 6.994497,0.418597 c -0.384221,0.040672 -0.746599,0.186268 -1.023,0.465 l -4.96,4.991 c -0.737076,0.743296 -0.606211,2.083329 0.279,2.976 l 6.975,7.006001 0,0.185998 -7.099,7.037001 c -0.892681,0.885221 -1.022286,2.207935 -0.279,2.945 l 5.022,4.929001 c 0.743296,0.737076 2.052319,0.63722 2.945,-0.248001 l 7.099,-7.067999 7.130001,7.191999 c 0.885212,0.892683 2.207924,1.022297 2.945,0.278999 l 4.959999,-5.021999 c 0.737078,-0.743284 0.606222,-2.052317 -0.278999,-2.945 l -7.037001,-7.099001 0,-0.062 7.160999,-7.098999 c 0.892681,-0.885211 1.022297,-2.176924 0.279001,-2.914 l -4.991001,-4.96 c -0.743284,-0.737066 -2.083319,-0.606211 -2.976,0.279 l -7.067999,7.037 -0.062,0 -7.099,-7.161 c -0.553258,-0.557921 -1.281624,-0.811773 -1.922,-0.744 z"
       stroke-miterlimit="4"
       inkscape:connector-curvature="0"
       style="fill:url(#linearGradient13664);stroke:#8a0000;stroke-width:0.60001099;stroke-linejoin:round;stroke-miterlimit:4" />
    <path
       id="rect11874"
       d="m 7.189356,3.76124 c -0.177925,-0.019334 -0.34347,0.03347 -0.465,0.155 l -2.759,2.759 c -0.24306,0.24305 -0.178292,0.689708 0.124,0.992 l 8.214999,8.21499 -8.214999,8.215009 c -0.302292,0.302282 -0.36706,0.748941 -0.124,0.992001 l 2.759,2.759001 c 0.24306,0.24305 0.689708,0.209282 0.992,-0.093 l 8.215,-8.215 8.215,8.215 c 0.30229,0.302282 0.74894,0.33605 0.991999,0.093 l 2.759001,-2.759001 c 0.243059,-0.243059 0.178291,-0.689718 -0.124001,-0.992001 l -8.215,-8.215009 8.215,-8.21499 c 0.302292,-0.302292 0.36706,-0.74895 0.124001,-0.992 l -2.759001,-2.759 c -0.243059,-0.24306 -0.689709,-0.178292 -0.991999,0.124 l -8.215,8.21499 -8.215,-8.21499 C 7.565215,3.889089 7.367281,3.780564 7.189356,3.76124 z"
       stroke-miterlimit="4"
       inkscape:connector-curvature="0"
       style="fill:#7f3f00;stroke-width:0.60000002;stroke-linejoin:round;stroke-miterlimit:4" />
  </g>
</svg>
